<mxfile host="Electron" modified="2024-11-01T17:59:49.869Z" agent="Mozilla/5.0 (Macintosh; Intel Mac OS X 10_15_7) AppleWebKit/537.36 (KHTML, like Gecko) draw.io/24.0.4 Chrome/120.0.6099.109 Electron/28.1.0 Safari/537.36" etag="N10d2W8bksv4lpHD4MPA" version="24.0.4" type="device">
  <diagram id="C5RBs43oDa-KdzZeNtuy" name="Page-1">
    <mxGraphModel dx="2757" dy="1269" grid="1" gridSize="10" guides="1" tooltips="1" connect="1" arrows="1" fold="1" page="1" pageScale="1" pageWidth="1169" pageHeight="1654" math="0" shadow="0">
      <root>
        <mxCell id="WIyWlLk6GJQsqaUBKTNV-0" />
        <mxCell id="WIyWlLk6GJQsqaUBKTNV-1" parent="WIyWlLk6GJQsqaUBKTNV-0" />
        <mxCell id="WIyWlLk6GJQsqaUBKTNV-4" value="False" style="rounded=0;html=1;jettySize=auto;orthogonalLoop=1;fontSize=11;endArrow=block;endFill=0;endSize=8;strokeWidth=1;shadow=0;labelBackgroundColor=none;edgeStyle=orthogonalEdgeStyle;exitX=0;exitY=0.5;exitDx=0;exitDy=0;entryX=0.5;entryY=1;entryDx=0;entryDy=0;entryPerimeter=0;" parent="WIyWlLk6GJQsqaUBKTNV-1" source="WIyWlLk6GJQsqaUBKTNV-6" target="JbYcFs2yPOU_wry_fN8u-0" edge="1">
          <mxGeometry x="-0.9155" y="-10" relative="1" as="geometry">
            <mxPoint as="offset" />
            <mxPoint x="142.5" y="820" as="sourcePoint" />
            <mxPoint x="20" y="220" as="targetPoint" />
          </mxGeometry>
        </mxCell>
        <mxCell id="JbYcFs2yPOU_wry_fN8u-1" value="True" style="edgeStyle=orthogonalEdgeStyle;rounded=0;orthogonalLoop=1;jettySize=auto;html=1;exitX=0.5;exitY=1;exitDx=0;exitDy=0;entryX=0.5;entryY=0;entryDx=0;entryDy=0;" edge="1" parent="WIyWlLk6GJQsqaUBKTNV-1" source="WIyWlLk6GJQsqaUBKTNV-6" target="idQhfBEYH00zGgHo6OJo-13">
          <mxGeometry x="-0.75" y="18" relative="1" as="geometry">
            <mxPoint x="-1" y="-1" as="offset" />
          </mxGeometry>
        </mxCell>
        <mxCell id="WIyWlLk6GJQsqaUBKTNV-6" value="&lt;div style=&quot;background-color:#ffffff;color:#080808;font-family:&#39;JetBrains Mono&#39;,monospace;font-size:9,8pt;&quot;&gt;&lt;pre&gt;&lt;span style=&quot;color:#067d17;&quot;&gt;topic in &lt;/span&gt;&lt;/pre&gt;&lt;pre&gt;&lt;span style=&quot;color:#067d17;&quot;&gt;plugins.websub.rootTopics?&lt;/span&gt;&lt;/pre&gt;&lt;/div&gt;" style="rhombus;whiteSpace=wrap;html=1;shadow=0;fontFamily=Helvetica;fontSize=12;align=center;strokeWidth=1;spacing=6;spacingTop=-4;" parent="WIyWlLk6GJQsqaUBKTNV-1" vertex="1">
          <mxGeometry y="760" width="320" height="120" as="geometry" />
        </mxCell>
        <mxCell id="JbYcFs2yPOU_wry_fN8u-10" value="True" style="edgeStyle=orthogonalEdgeStyle;rounded=0;orthogonalLoop=1;jettySize=auto;html=1;entryX=0.5;entryY=0;entryDx=0;entryDy=0;" edge="1" parent="WIyWlLk6GJQsqaUBKTNV-1" source="WIyWlLk6GJQsqaUBKTNV-10" target="WIyWlLk6GJQsqaUBKTNV-6">
          <mxGeometry x="-0.5146" y="20" relative="1" as="geometry">
            <mxPoint as="offset" />
          </mxGeometry>
        </mxCell>
        <mxCell id="WIyWlLk6GJQsqaUBKTNV-10" value="&lt;pre style=&quot;color: rgb(8, 8, 8);&quot;&gt;&lt;pre&gt;&lt;span style=&quot;color: rgb(6, 125, 23);&quot;&gt;request method in &lt;/span&gt;&lt;/pre&gt;&lt;pre&gt;&lt;span style=&quot;color: rgb(6, 125, 23);&quot;&gt;{GET, HEAD}?&lt;/span&gt;&lt;/pre&gt;&lt;/pre&gt;" style="rhombus;whiteSpace=wrap;html=1;shadow=0;fontFamily=Helvetica;fontSize=12;align=center;strokeWidth=1;spacing=6;spacingTop=-4;" parent="WIyWlLk6GJQsqaUBKTNV-1" vertex="1">
          <mxGeometry y="560" width="320" height="120" as="geometry" />
        </mxCell>
        <mxCell id="idQhfBEYH00zGgHo6OJo-26" style="edgeStyle=orthogonalEdgeStyle;rounded=0;orthogonalLoop=1;jettySize=auto;html=1;entryX=1;entryY=0.5;entryDx=0;entryDy=0;entryPerimeter=0;" parent="WIyWlLk6GJQsqaUBKTNV-1" source="idQhfBEYH00zGgHo6OJo-13" target="idQhfBEYH00zGgHo6OJo-42" edge="1">
          <mxGeometry relative="1" as="geometry">
            <mxPoint x="-320" y="1000" as="targetPoint" />
          </mxGeometry>
        </mxCell>
        <mxCell id="idQhfBEYH00zGgHo6OJo-27" value="False" style="edgeLabel;html=1;align=center;verticalAlign=middle;resizable=0;points=[];" parent="idQhfBEYH00zGgHo6OJo-26" vertex="1" connectable="0">
          <mxGeometry x="-0.7556" y="-1" relative="1" as="geometry">
            <mxPoint x="-11" y="-9" as="offset" />
          </mxGeometry>
        </mxCell>
        <mxCell id="idQhfBEYH00zGgHo6OJo-28" style="edgeStyle=orthogonalEdgeStyle;rounded=0;orthogonalLoop=1;jettySize=auto;html=1;entryX=0.5;entryY=0;entryDx=0;entryDy=0;entryPerimeter=0;" parent="WIyWlLk6GJQsqaUBKTNV-1" source="idQhfBEYH00zGgHo6OJo-13" target="idQhfBEYH00zGgHo6OJo-44" edge="1">
          <mxGeometry relative="1" as="geometry">
            <mxPoint x="160" y="1080" as="sourcePoint" />
          </mxGeometry>
        </mxCell>
        <mxCell id="idQhfBEYH00zGgHo6OJo-29" value="True" style="edgeLabel;html=1;align=center;verticalAlign=middle;resizable=0;points=[];" parent="idQhfBEYH00zGgHo6OJo-28" vertex="1" connectable="0">
          <mxGeometry x="-0.15" y="2" relative="1" as="geometry">
            <mxPoint x="16" y="-24" as="offset" />
          </mxGeometry>
        </mxCell>
        <mxCell id="idQhfBEYH00zGgHo6OJo-13" value="&lt;div style=&quot;background-color:#ffffff;color:#080808;font-family:&#39;JetBrains Mono&#39;,monospace;font-size:9,8pt;&quot;&gt;&lt;pre&gt;&lt;span style=&quot;color:#067d17;&quot;&gt;topic contains &lt;/span&gt;&lt;/pre&gt;&lt;pre&gt;&lt;span style=&quot;color:#067d17;&quot;&gt;ODATA query?&lt;/span&gt;&lt;/pre&gt;&lt;/div&gt;" style="rhombus;whiteSpace=wrap;html=1;shadow=0;fontFamily=Helvetica;fontSize=12;align=center;strokeWidth=1;spacing=6;spacingTop=-4;" parent="WIyWlLk6GJQsqaUBKTNV-1" vertex="1">
          <mxGeometry y="960" width="320" height="120" as="geometry" />
        </mxCell>
        <mxCell id="idQhfBEYH00zGgHo6OJo-31" style="edgeStyle=orthogonalEdgeStyle;rounded=0;orthogonalLoop=1;jettySize=auto;html=1;entryX=0;entryY=0.5;entryDx=0;entryDy=0;entryPerimeter=0;" parent="WIyWlLk6GJQsqaUBKTNV-1" source="idQhfBEYH00zGgHo6OJo-24" target="idQhfBEYH00zGgHo6OJo-41" edge="1">
          <mxGeometry relative="1" as="geometry">
            <mxPoint x="-318.97" y="1283" as="targetPoint" />
          </mxGeometry>
        </mxCell>
        <mxCell id="idQhfBEYH00zGgHo6OJo-32" value="False" style="edgeLabel;html=1;align=center;verticalAlign=middle;resizable=0;points=[];" parent="idQhfBEYH00zGgHo6OJo-31" vertex="1" connectable="0">
          <mxGeometry x="-0.85" y="1" relative="1" as="geometry">
            <mxPoint y="-11" as="offset" />
          </mxGeometry>
        </mxCell>
        <mxCell id="idQhfBEYH00zGgHo6OJo-34" style="edgeStyle=orthogonalEdgeStyle;rounded=0;orthogonalLoop=1;jettySize=auto;html=1;exitX=0.5;exitY=1;exitDx=0;exitDy=0;entryX=0.5;entryY=0;entryDx=0;entryDy=0;" parent="WIyWlLk6GJQsqaUBKTNV-1" source="idQhfBEYH00zGgHo6OJo-24" target="idQhfBEYH00zGgHo6OJo-33" edge="1">
          <mxGeometry relative="1" as="geometry" />
        </mxCell>
        <mxCell id="idQhfBEYH00zGgHo6OJo-35" value="True" style="edgeLabel;html=1;align=center;verticalAlign=middle;resizable=0;points=[];" parent="idQhfBEYH00zGgHo6OJo-34" vertex="1" connectable="0">
          <mxGeometry x="-0.3" y="1" relative="1" as="geometry">
            <mxPoint x="17" as="offset" />
          </mxGeometry>
        </mxCell>
        <mxCell id="idQhfBEYH00zGgHo6OJo-24" value="&lt;div style=&quot;background-color:#ffffff;color:#080808;font-family:&#39;JetBrains Mono&#39;,monospace;font-size:9,8pt;&quot;&gt;&lt;pre&gt;&lt;span style=&quot;color:#067d17;&quot;&gt;ODATA query &lt;/span&gt;&lt;/pre&gt;&lt;pre&gt;&lt;span style=&quot;color:#067d17;&quot;&gt;contains $filter?&lt;br&gt;&lt;/span&gt;&lt;/pre&gt;&lt;/div&gt;" style="rhombus;whiteSpace=wrap;html=1;shadow=0;fontFamily=Helvetica;fontSize=12;align=center;strokeWidth=1;spacing=6;spacingTop=-4;" parent="WIyWlLk6GJQsqaUBKTNV-1" vertex="1">
          <mxGeometry x="-326.03000000000003" y="1240" width="245" height="80" as="geometry" />
        </mxCell>
        <mxCell id="idQhfBEYH00zGgHo6OJo-38" style="edgeStyle=orthogonalEdgeStyle;rounded=0;orthogonalLoop=1;jettySize=auto;html=1;entryX=0;entryY=0.5;entryDx=0;entryDy=0;entryPerimeter=0;" parent="WIyWlLk6GJQsqaUBKTNV-1" source="idQhfBEYH00zGgHo6OJo-33" target="idQhfBEYH00zGgHo6OJo-41" edge="1">
          <mxGeometry relative="1" as="geometry">
            <mxPoint x="-318.97" y="1400" as="targetPoint" />
          </mxGeometry>
        </mxCell>
        <mxCell id="idQhfBEYH00zGgHo6OJo-39" value="True" style="edgeLabel;html=1;align=center;verticalAlign=middle;resizable=0;points=[];" parent="idQhfBEYH00zGgHo6OJo-38" vertex="1" connectable="0">
          <mxGeometry x="-0.8389" y="-1" relative="1" as="geometry">
            <mxPoint y="-9" as="offset" />
          </mxGeometry>
        </mxCell>
        <mxCell id="idQhfBEYH00zGgHo6OJo-33" value="&lt;div style=&quot;background-color:#ffffff;color:#080808;font-family:&#39;JetBrains Mono&#39;,monospace;font-size:9,8pt;&quot;&gt;&lt;pre&gt;&lt;div style=&quot;font-family: &amp;quot;JetBrains Mono&amp;quot;, monospace;&quot;&gt;&lt;pre&gt;&lt;span style=&quot;color:#067d17;&quot;&gt;mqtt.allowFilter?&lt;/span&gt;&lt;/pre&gt;&lt;/div&gt;&lt;/pre&gt;&lt;/div&gt;" style="rhombus;whiteSpace=wrap;html=1;shadow=0;fontFamily=Helvetica;fontSize=12;align=center;strokeWidth=1;spacing=6;spacingTop=-4;" parent="WIyWlLk6GJQsqaUBKTNV-1" vertex="1">
          <mxGeometry x="-326.03000000000003" y="1360" width="245" height="80" as="geometry" />
        </mxCell>
        <mxCell id="idQhfBEYH00zGgHo6OJo-41" value="self-link exposed" style="strokeWidth=2;html=1;shape=mxgraph.flowchart.terminator;whiteSpace=wrap;fillColor=#d5e8d4;strokeColor=#82b366;" parent="WIyWlLk6GJQsqaUBKTNV-1" vertex="1">
          <mxGeometry x="90.03" y="1320" width="150" height="40" as="geometry" />
        </mxCell>
        <mxCell id="idQhfBEYH00zGgHo6OJo-42" value="self-link exposed" style="strokeWidth=2;html=1;shape=mxgraph.flowchart.terminator;whiteSpace=wrap;fillColor=#d5e8d4;strokeColor=#82b366;" parent="WIyWlLk6GJQsqaUBKTNV-1" vertex="1">
          <mxGeometry x="-240" y="1000" width="150" height="40" as="geometry" />
        </mxCell>
        <mxCell id="idQhfBEYH00zGgHo6OJo-46" style="edgeStyle=orthogonalEdgeStyle;rounded=0;orthogonalLoop=1;jettySize=auto;html=1;exitX=0;exitY=0.5;exitDx=0;exitDy=0;exitPerimeter=0;entryX=0.5;entryY=0;entryDx=0;entryDy=0;" parent="WIyWlLk6GJQsqaUBKTNV-1" source="idQhfBEYH00zGgHo6OJo-44" target="idQhfBEYH00zGgHo6OJo-24" edge="1">
          <mxGeometry relative="1" as="geometry">
            <mxPoint x="-50.03" y="1180" as="sourcePoint" />
          </mxGeometry>
        </mxCell>
        <mxCell id="idQhfBEYH00zGgHo6OJo-57" style="edgeStyle=orthogonalEdgeStyle;rounded=0;orthogonalLoop=1;jettySize=auto;html=1;" parent="WIyWlLk6GJQsqaUBKTNV-1" source="idQhfBEYH00zGgHo6OJo-44" target="idQhfBEYH00zGgHo6OJo-51" edge="1">
          <mxGeometry relative="1" as="geometry" />
        </mxCell>
        <mxCell id="idQhfBEYH00zGgHo6OJo-44" value="" style="verticalLabelPosition=bottom;verticalAlign=top;html=1;shape=mxgraph.flowchart.parallel_mode;pointerEvents=1" parent="WIyWlLk6GJQsqaUBKTNV-1" vertex="1">
          <mxGeometry x="112.5" y="1160" width="95" height="40" as="geometry" />
        </mxCell>
        <mxCell id="idQhfBEYH00zGgHo6OJo-47" style="edgeStyle=orthogonalEdgeStyle;rounded=0;orthogonalLoop=1;jettySize=auto;html=1;entryX=1;entryY=0.5;entryDx=0;entryDy=0;entryPerimeter=0;" parent="WIyWlLk6GJQsqaUBKTNV-1" source="idQhfBEYH00zGgHo6OJo-51" target="idQhfBEYH00zGgHo6OJo-41" edge="1">
          <mxGeometry relative="1" as="geometry">
            <mxPoint x="641.03" y="1280" as="targetPoint" />
          </mxGeometry>
        </mxCell>
        <mxCell id="idQhfBEYH00zGgHo6OJo-48" value="False" style="edgeLabel;html=1;align=center;verticalAlign=middle;resizable=0;points=[];" parent="idQhfBEYH00zGgHo6OJo-47" vertex="1" connectable="0">
          <mxGeometry x="-0.85" y="1" relative="1" as="geometry">
            <mxPoint y="-11" as="offset" />
          </mxGeometry>
        </mxCell>
        <mxCell id="idQhfBEYH00zGgHo6OJo-49" style="edgeStyle=orthogonalEdgeStyle;rounded=0;orthogonalLoop=1;jettySize=auto;html=1;exitX=0.5;exitY=1;exitDx=0;exitDy=0;entryX=0.5;entryY=0;entryDx=0;entryDy=0;" parent="WIyWlLk6GJQsqaUBKTNV-1" source="idQhfBEYH00zGgHo6OJo-51" target="idQhfBEYH00zGgHo6OJo-54" edge="1">
          <mxGeometry relative="1" as="geometry" />
        </mxCell>
        <mxCell id="idQhfBEYH00zGgHo6OJo-50" value="True" style="edgeLabel;html=1;align=center;verticalAlign=middle;resizable=0;points=[];" parent="idQhfBEYH00zGgHo6OJo-49" vertex="1" connectable="0">
          <mxGeometry x="-0.3" y="1" relative="1" as="geometry">
            <mxPoint x="17" as="offset" />
          </mxGeometry>
        </mxCell>
        <mxCell id="idQhfBEYH00zGgHo6OJo-51" value="&lt;div style=&quot;background-color:#ffffff;color:#080808;font-family:&#39;JetBrains Mono&#39;,monospace;font-size:9,8pt;&quot;&gt;&lt;pre&gt;&lt;span style=&quot;color:#067d17;&quot;&gt;ODATA query &lt;/span&gt;&lt;/pre&gt;&lt;pre&gt;&lt;span style=&quot;color:#067d17;&quot;&gt;contains $expand?&lt;br&gt;&lt;/span&gt;&lt;/pre&gt;&lt;/div&gt;" style="rhombus;whiteSpace=wrap;html=1;shadow=0;fontFamily=Helvetica;fontSize=12;align=center;strokeWidth=1;spacing=6;spacingTop=-4;" parent="WIyWlLk6GJQsqaUBKTNV-1" vertex="1">
          <mxGeometry x="401.03" y="1240" width="245" height="80" as="geometry" />
        </mxCell>
        <mxCell id="idQhfBEYH00zGgHo6OJo-52" style="edgeStyle=orthogonalEdgeStyle;rounded=0;orthogonalLoop=1;jettySize=auto;html=1;entryX=1;entryY=0.5;entryDx=0;entryDy=0;entryPerimeter=0;exitX=0.5;exitY=1;exitDx=0;exitDy=0;" parent="WIyWlLk6GJQsqaUBKTNV-1" source="idQhfBEYH00zGgHo6OJo-54" target="idQhfBEYH00zGgHo6OJo-58" edge="1">
          <mxGeometry relative="1" as="geometry">
            <mxPoint x="641.03" y="1400" as="targetPoint" />
          </mxGeometry>
        </mxCell>
        <mxCell id="idQhfBEYH00zGgHo6OJo-53" value="False" style="edgeLabel;html=1;align=center;verticalAlign=middle;resizable=0;points=[];" parent="idQhfBEYH00zGgHo6OJo-52" vertex="1" connectable="0">
          <mxGeometry x="-0.8389" y="-1" relative="1" as="geometry">
            <mxPoint x="18" y="-9" as="offset" />
          </mxGeometry>
        </mxCell>
        <mxCell id="idQhfBEYH00zGgHo6OJo-54" value="&lt;div style=&quot;background-color:#ffffff;color:#080808;font-family:&#39;JetBrains Mono&#39;,monospace;font-size:9,8pt;&quot;&gt;&lt;pre&gt;&lt;div style=&quot;font-family: &amp;quot;JetBrains Mono&amp;quot;, monospace;&quot;&gt;&lt;pre&gt;&lt;span style=&quot;color:#067d17;&quot;&gt;mqtt.allowExpand?&lt;/span&gt;&lt;/pre&gt;&lt;/div&gt;&lt;/pre&gt;&lt;/div&gt;" style="rhombus;whiteSpace=wrap;html=1;shadow=0;fontFamily=Helvetica;fontSize=12;align=center;strokeWidth=1;spacing=6;spacingTop=-4;" parent="WIyWlLk6GJQsqaUBKTNV-1" vertex="1">
          <mxGeometry x="401.03" y="1360" width="245" height="80" as="geometry" />
        </mxCell>
        <mxCell id="idQhfBEYH00zGgHo6OJo-58" value="self-link not exposed" style="strokeWidth=2;html=1;shape=mxgraph.flowchart.terminator;whiteSpace=wrap;fillColor=#f8cecc;strokeColor=#b85450;" parent="WIyWlLk6GJQsqaUBKTNV-1" vertex="1">
          <mxGeometry x="86.03" y="1460" width="150" height="40" as="geometry" />
        </mxCell>
        <mxCell id="idQhfBEYH00zGgHo6OJo-59" value="False" style="edgeStyle=orthogonalEdgeStyle;rounded=0;orthogonalLoop=1;jettySize=auto;html=1;entryX=0;entryY=0.5;entryDx=0;entryDy=0;entryPerimeter=0;exitX=0.5;exitY=1;exitDx=0;exitDy=0;" parent="WIyWlLk6GJQsqaUBKTNV-1" source="idQhfBEYH00zGgHo6OJo-33" target="idQhfBEYH00zGgHo6OJo-58" edge="1">
          <mxGeometry x="-0.87" y="18" relative="1" as="geometry">
            <Array as="points">
              <mxPoint x="-203.97" y="1480" />
            </Array>
            <mxPoint y="-1" as="offset" />
          </mxGeometry>
        </mxCell>
        <mxCell id="idQhfBEYH00zGgHo6OJo-66" value="True" style="edgeStyle=orthogonalEdgeStyle;rounded=0;orthogonalLoop=1;jettySize=auto;html=1;entryX=1;entryY=0.5;entryDx=0;entryDy=0;entryPerimeter=0;" parent="WIyWlLk6GJQsqaUBKTNV-1" source="idQhfBEYH00zGgHo6OJo-54" target="idQhfBEYH00zGgHo6OJo-41" edge="1">
          <mxGeometry x="-0.8986" y="-10" relative="1" as="geometry">
            <Array as="points">
              <mxPoint x="321.03" y="1400" />
              <mxPoint x="321.03" y="1340" />
            </Array>
            <mxPoint x="1" as="offset" />
            <mxPoint x="641.03" y="1520" as="targetPoint" />
          </mxGeometry>
        </mxCell>
        <mxCell id="JbYcFs2yPOU_wry_fN8u-0" value="self-link not exposed" style="strokeWidth=2;html=1;shape=mxgraph.flowchart.terminator;whiteSpace=wrap;fillColor=#f8cecc;strokeColor=#b85450;" vertex="1" parent="WIyWlLk6GJQsqaUBKTNV-1">
          <mxGeometry x="-240" y="600" width="150" height="40" as="geometry" />
        </mxCell>
        <mxCell id="JbYcFs2yPOU_wry_fN8u-2" value="" style="endArrow=classic;html=1;rounded=0;entryX=0.5;entryY=0;entryDx=0;entryDy=0;exitX=0.5;exitY=1;exitDx=0;exitDy=0;" edge="1" parent="WIyWlLk6GJQsqaUBKTNV-1" source="JbYcFs2yPOU_wry_fN8u-4" target="JbYcFs2yPOU_wry_fN8u-5">
          <mxGeometry x="0.1818" y="20" width="50" height="50" relative="1" as="geometry">
            <mxPoint x="40" y="500" as="sourcePoint" />
            <mxPoint x="260" y="499.9999999999998" as="targetPoint" />
            <mxPoint x="1" as="offset" />
          </mxGeometry>
        </mxCell>
        <mxCell id="JbYcFs2yPOU_wry_fN8u-6" value="HTTP request" style="edgeStyle=orthogonalEdgeStyle;rounded=0;orthogonalLoop=1;jettySize=auto;html=1;entryX=0.5;entryY=0;entryDx=0;entryDy=0;" edge="1" parent="WIyWlLk6GJQsqaUBKTNV-1" target="JbYcFs2yPOU_wry_fN8u-4">
          <mxGeometry relative="1" as="geometry">
            <mxPoint x="160" y="120" as="sourcePoint" />
          </mxGeometry>
        </mxCell>
        <mxCell id="JbYcFs2yPOU_wry_fN8u-4" value="&lt;div&gt;calculate MQTT topic from HTTP Request&lt;/div&gt;topic = request URL - rootURL" style="rounded=1;whiteSpace=wrap;html=1;" vertex="1" parent="WIyWlLk6GJQsqaUBKTNV-1">
          <mxGeometry x="40" y="240" width="240" height="80" as="geometry" />
        </mxCell>
        <mxCell id="JbYcFs2yPOU_wry_fN8u-9" value="True" style="edgeStyle=orthogonalEdgeStyle;rounded=0;orthogonalLoop=1;jettySize=auto;html=1;entryX=0.5;entryY=0;entryDx=0;entryDy=0;" edge="1" parent="WIyWlLk6GJQsqaUBKTNV-1" source="JbYcFs2yPOU_wry_fN8u-5" target="WIyWlLk6GJQsqaUBKTNV-10">
          <mxGeometry x="-0.5" y="30" relative="1" as="geometry">
            <mxPoint as="offset" />
          </mxGeometry>
        </mxCell>
        <mxCell id="JbYcFs2yPOU_wry_fN8u-5" value="&lt;pre style=&quot;&quot;&gt;&lt;pre style=&quot;color: rgb(8, 8, 8);&quot;&gt;&lt;pre&gt;&lt;span style=&quot;color: rgb(6, 125, 23);&quot;&gt;plugins.websub.enable?&lt;/span&gt;&lt;/pre&gt;&lt;/pre&gt;&lt;/pre&gt;" style="rhombus;whiteSpace=wrap;html=1;shadow=0;fontFamily=Helvetica;fontSize=12;align=center;strokeWidth=1;spacing=6;spacingTop=-4;" vertex="1" parent="WIyWlLk6GJQsqaUBKTNV-1">
          <mxGeometry y="360" width="320" height="120" as="geometry" />
        </mxCell>
        <mxCell id="JbYcFs2yPOU_wry_fN8u-7" value="False" style="edgeStyle=orthogonalEdgeStyle;rounded=0;orthogonalLoop=1;jettySize=auto;html=1;entryX=1;entryY=0.5;entryDx=0;entryDy=0;entryPerimeter=0;" edge="1" parent="WIyWlLk6GJQsqaUBKTNV-1" source="WIyWlLk6GJQsqaUBKTNV-10" target="JbYcFs2yPOU_wry_fN8u-0">
          <mxGeometry x="-0.5556" y="-20" relative="1" as="geometry">
            <mxPoint as="offset" />
          </mxGeometry>
        </mxCell>
        <mxCell id="JbYcFs2yPOU_wry_fN8u-8" value="False" style="edgeStyle=orthogonalEdgeStyle;rounded=0;orthogonalLoop=1;jettySize=auto;html=1;entryX=0.5;entryY=0;entryDx=0;entryDy=0;entryPerimeter=0;" edge="1" parent="WIyWlLk6GJQsqaUBKTNV-1" source="JbYcFs2yPOU_wry_fN8u-5" target="JbYcFs2yPOU_wry_fN8u-0">
          <mxGeometry x="-0.8881" y="-10" relative="1" as="geometry">
            <mxPoint as="offset" />
          </mxGeometry>
        </mxCell>
      </root>
    </mxGraphModel>
  </diagram>
</mxfile>
